<?xml version="1.0" standalone="no"?>
<!DOCTYPE svg PUBLIC "-//W3C//DTD SVG 20010904//EN"
 "http://www.w3.org/TR/2001/REC-SVG-20010904/DTD/svg10.dtd">
<svg version="1.0" xmlns="http://www.w3.org/2000/svg"
 width="225.000000pt" height="225.000000pt" viewBox="0 0 225.000000 225.000000"
 preserveAspectRatio="xMidYMid meet">

<g transform="translate(0.000000,225.000000) scale(0.100000,-0.100000)"
fill="#000000" stroke="none">
<path d="M1086 1209 c-61 -14 -152 -68 -205 -120 -56 -55 -116 -167 -126 -233
l-7 -43 -67 -5 c-175 -13 -299 -136 -309 -308 -3 -61 0 -86 19 -135 30 -80
104 -154 182 -183 57 -22 68 -22 636 -22 635 0 636 0 733 62 63 40 105 89 142
168 27 58 31 75 31 156 0 84 -2 95 -38 166 -43 87 -98 143 -186 185 -49 24
-69 27 -160 29 l-103 1 -18 39 c-46 103 -151 194 -268 233 -66 23 -183 27
-256 10z m209 -84 c113 -30 200 -105 249 -216 35 -80 43 -85 125 -69 79 15
126 9 198 -26 223 -107 220 -431 -5 -541 l-57 -28 -568 -3 c-366 -2 -581 1
-606 8 -56 15 -116 62 -148 117 -24 40 -28 59 -28 119 0 61 4 77 30 120 34 55
111 107 171 117 19 3 60 1 90 -5 70 -14 80 -5 86 77 10 123 92 246 200 301 89
45 167 54 263 29z"/>
</g>
</svg>
